<svg xmlns="http://www.w3.org/2000/svg" version="1.1" width="3300" height="2000"><g id="Notes"><style>
    text {
      font-family: monospace;
      text-anchor: middle;
    }
    text.emphasis {
      font-weight:bold;
    }
    text.lanchor {
      text-anchor: start;
    }
  </style><rect height="2200" id="artboard" fill="white" width="3300" x="0" y="0"/><line id="" style="fill:none;stroke:black;stroke-width:0.5;" x1="263" x2="3036" y1="292" y2="292"/><text class="lanchor emphasis" transform="matrix(1 0 0 1 263 322)">Weight/Scale Variations</text><text transform="matrix(1 0 0 1 559.711 322)">Ultralight</text><text transform="matrix(1 0 0 1 856.422 322)">Thin</text><text transform="matrix(1 0 0 1 1153.13 322)">Light</text><text transform="matrix(1 0 0 1 1449.84 322)">Regular</text><text transform="matrix(1 0 0 1 1746.56 322)">Medium</text><text transform="matrix(1 0 0 1 2043.27 322)">Semibold</text><text transform="matrix(1 0 0 1 2339.98 322)">Bold</text><text transform="matrix(1 0 0 1 2636.69 322)">Heavy</text><text transform="matrix(1 0 0 1 2933.4 322)">Black</text><text id="template-version" style="text-anchor: end;" transform="matrix(1 0 0 1 3036 1933)">Template v.1.0</text><text class="lanchor" transform="matrix(1 0 0 1 263 726)">Small</text><text class="lanchor" transform="matrix(1 0 0 1 263 1156)">Medium</text><text class="lanchor" transform="matrix(1 0 0 1 263 1586)">Large</text></g><g id="Guides"><g id="H-reference" style="fill:#27AAE1;stroke:none;" transform="matrix(1 0 0 1 339 696)"><path d="M 54.9316 0 L 57.666 0 L 30.5664 -70.459 L 28.0762 -70.459 L 0.976562 0 L 3.66211 0 L 12.9395 -24.4629 L 45.7031 -24.4629 Z M 29.1992 -67.0898 L 29.4434 -67.0898 L 44.8242 -26.709 L 13.8184 -26.709 Z"/></g><line id="Baseline-S" style="fill:none;stroke:#27AAE1;opacity:1;stroke-width:0.577;" x1="263" x2="3036" y1="696" y2="696"/><line id="Capline-S" style="fill:none;stroke:#27AAE1;opacity:1;stroke-width:0.577;" x1="263" x2="3036" y1="625.541" y2="625.541"/><g id="H-reference" style="fill:#27AAE1;stroke:none;" transform="matrix(1 0 0 1 339 1126)"><path d="M 54.9316 0 L 57.666 0 L 30.5664 -70.459 L 28.0762 -70.459 L 0.976562 0 L 3.66211 0 L 12.9395 -24.4629 L 45.7031 -24.4629 Z M 29.1992 -67.0898 L 29.4434 -67.0898 L 44.8242 -26.709 L 13.8184 -26.709 Z"/></g><line id="Baseline-M" style="fill:none;stroke:#27AAE1;opacity:1;stroke-width:0.577;" x1="263" x2="3036" y1="1126" y2="1126"/><line id="Capline-M" style="fill:none;stroke:#27AAE1;opacity:1;stroke-width:0.577;" x1="263" x2="3036" y1="1055.54" y2="1055.54"/><g id="H-reference" style="fill:#27AAE1;stroke:none;" transform="matrix(1 0 0 1 339 1556)"><path d="M 54.9316 0 L 57.666 0 L 30.5664 -70.459 L 28.0762 -70.459 L 0.976562 0 L 3.66211 0 L 12.9395 -24.4629 L 45.7031 -24.4629 Z M 29.1992 -67.0898 L 29.4434 -67.0898 L 44.8242 -26.709 L 13.8184 -26.709 Z"/></g><line id="Baseline-L" style="fill:none;stroke:#27AAE1;opacity:1;stroke-width:0.577;" x1="263" x2="3036" y1="1556" y2="1556"/><line id="Capline-L" style="fill:none;stroke:#27AAE1;opacity:1;stroke-width:0.577;" x1="263" x2="3036" y1="1485.54" y2="1485.54"/><rect height="119.336" id="left-margin" style="fill:darkred;stroke:none;opacity:0.4;" width="12.4512" x="1394.06" y="1030.79"/><rect height="119.336" id="right-margin" style="fill:darkgreen;stroke:none;opacity:0.4;" width="12.4512" x="1502.5112" y="1030.79"/><rect x="1406.5112" y="1045" width="96" height="96" fill="none" stroke="blue" stroke-dasharray="5"/><rect x="1394.06" y="1030.79" width="120.9024" height="119.336" fill="none" stroke="blue"/></g><g id="Symbols"><g id="Bold-L" transform="matrix(1 0 0 1 2266 1556)"><path d="M63.5325 26.85125000000002  70.46625 -21.685000000000002 H45.31125 Q43.215 -21.685000000000002 42.408750000000005 -23.378124999999997 Q41.6025 -25.071249999999992 42.73125 -26.683750000000003 L84.81750000000001 -97.4725 H91.75125 L84.81750000000001 -48.936249999999994 H109.81124999999999 Q111.58500000000001 -48.936249999999994 112.5525 -47.24312499999999 Q113.52000000000001 -45.55 112.5525 -43.937499999999986 L70.46625 26.85125000000002 H63.5325 Z"/></g><g id="Semibold-L" transform="matrix(1 0 0 1 1970.27 1556)"><path d="M63.855000000000004 25.077500000000015  70.6275 -22.16874999999999 H46.27875 Q44.34375 -22.16874999999999 43.5375 -23.781249999999986 Q42.73125 -25.393749999999997 43.698750000000004 -27.006249999999994 L84.65625 -95.69874999999999 H91.42875000000001 L84.65625 -48.4525 H108.84375 Q110.61749999999999 -48.4525 111.50437500000001 -46.84 Q112.39125000000001 -45.22749999999999 111.58500000000001 -43.614999999999995 L70.6275 25.077500000000015 H63.855000000000004 Z"/></g><g id="Medium-L" transform="matrix(1 0 0 1 1674.31 1556)"><path d="M64.1775 23.787499999999994  70.78875 -22.491249999999994 H46.923750000000005 Q44.988749999999996 -22.491249999999994 44.1825 -24.10374999999999 Q43.37625 -25.716250000000002 44.34375 -27.16749999999999 L84.495 -94.2475 H91.10625 L84.495 -48.129999999999995 H108.03750000000001 Q109.81124999999999 -48.129999999999995 110.77875 -46.5175 Q111.74625 -44.90499999999999 110.77875 -43.45375 L70.78875 23.787499999999994 H64.1775 Z"/></g><g id="Regular-L" transform="matrix(1 0 0 1 1378.56 1556)"><path d="M64.33875 22.82000000000002  70.95 -22.652500000000003 H47.4075 Q45.63375 -22.652500000000003 44.8275 -24.265 Q44.02125 -25.877499999999998 44.8275 -27.32875 L84.33375 -93.28 H90.945 L84.33375 -47.968749999999986 H107.55375000000001 Q109.3275 -47.968749999999986 110.21437499999999 -46.35624999999999 Q111.10125000000001 -44.74374999999999 110.29500000000002 -43.29249999999999 L70.95 22.82000000000002 H64.33875 Z"/></g><g id="Light-L" transform="matrix(1 0 0 1 1082.77 1556)"><path d="M65.145 19.595  71.27250000000001 -23.2975 H50.471250000000005 Q48.6975 -23.2975 47.971875000000004 -24.748749999999987 Q47.24625 -26.19999999999999 48.21375 -27.812499999999986 L83.85000000000001 -90.05499999999999 H89.97749999999999 L83.85000000000001 -47.32374999999999 H104.32875000000001 Q106.10249999999999 -47.32374999999999 106.90875 -45.8725 Q107.715 -44.42125 106.90875 -42.80875 L71.27250000000001 19.595 H65.145 Z"/></g><g id="Thin-L" transform="matrix(1 0 0 1 787.282 1556)"><path d="M65.95125 16.370000000000005  71.75625000000001 -23.942499999999995 H53.535000000000004 Q51.761250000000004 -23.942499999999995 51.196875 -25.313125 Q50.6325 -26.683750000000003 51.6 -28.13499999999999 L83.36625000000001 -86.83 H89.01 L83.36625000000001 -46.678749999999994 H101.265 Q103.03875000000001 -46.678749999999994 103.68375 -45.30812499999999 Q104.32875000000001 -43.937499999999986 103.52250000000001 -42.32499999999999 L71.75625000000001 16.370000000000005 H65.95125 Z"/></g><g id="Ultralight-L" transform="matrix(1 0 0 1 491.205 1556)"><path d="M66.435 14.435000000000002  71.9175 -24.426249999999982 H55.47 Q53.535000000000004 -24.426249999999982 53.051249999999996 -25.63562499999999 Q52.5675 -26.844999999999985 53.535000000000004 -28.457499999999982 L83.04375 -84.895 H88.52625 L83.04375 -46.19499999999999 H99.33 Q101.10375 -46.19499999999999 101.668125 -44.985624999999985 Q102.2325 -43.77624999999999 101.42625 -42.0025 L71.9175 14.435000000000002 H66.435 Z"/></g><g id="Bold-M" transform="matrix(1 0 0 1 2281.8 1126)"><path d="M49.125 14.02000000000001  54.5 -24.22999999999999 H35.25 Q33.125 -24.22999999999999 32.75 -25.35499999999999 Q32.375 -26.47999999999999 33.5 -28.35499999999999 L65.5 -84.47999999999999 H70.875 L65.5 -46.22999999999999 H84.75 Q86.875 -46.22999999999999 87.25 -45.10499999999999 Q87.625 -43.97999999999999 86.5 -42.10499999999999 L54.5 14.02000000000001 H49.125 Z"/></g><g id="Semibold-M" transform="matrix(1 0 0 1 1985.97 1126)"><path d="M49.5 12.14500000000001  54.75 -24.60499999999999 H36.25 Q34.25 -24.60499999999999 33.815 -25.72999999999999 Q33.375 -26.85499999999999 34.5 -28.60499999999999 L65.25 -82.60499999999999 H70.5 L65.25 -45.85499999999999 H83.75 Q85.75 -45.85499999999999 86.19 -44.72999999999999 Q86.625 -43.60499999999999 85.5 -41.85499999999999 L54.75 12.14500000000001 H49.5 Z"/></g><g id="Medium-M" transform="matrix(1 0 0 1 1689.91 1126)"><path d="M49.75 10.77000000000001  54.875 -24.97999999999999 H37.0 Q35.0 -24.97999999999999 34.56 -26.044999999999987 Q34.125 -27.10499999999999 35.25 -28.85499999999999 L65.125 -81.22999999999999 H70.25 L65.125 -45.47999999999999 H83.0 Q85.0 -45.47999999999999 85.435 -44.41999999999999 Q85.875 -43.35499999999999 84.75 -41.60499999999999 L54.875 10.77000000000001 H49.75 Z"/></g><g id="Regular-M" transform="matrix(1 0 0 1 1394.06 1126)"><path d="M50.0 9.77000000000001  55.0 -25.22999999999999 H37.5 Q35.625 -25.22999999999999 35.185 -26.22999999999999 Q34.75 -27.22999999999999 35.75 -28.97999999999999 L65.0 -80.22999999999999 H70.0 L65.0 -45.22999999999999 H82.5 Q84.375 -45.22999999999999 84.81 -44.22999999999999 Q85.25 -43.22999999999999 84.25 -41.47999999999999 L55.0 9.77000000000001 H50.0 Z"/></g><g id="Light-M" transform="matrix(1 0 0 1 1098.18 1126)"><path d="M50.625 7.27000000000001  55.25 -25.85499999999999 H39.75 Q37.875 -25.85499999999999 37.5 -26.789999999999992 Q37.125 -27.72999999999999 38.0 -29.35499999999999 L64.75 -77.72999999999999 H69.375 L64.75 -44.60499999999999 H80.25 Q82.0 -44.60499999999999 82.44 -43.669999999999995 Q82.875 -42.72999999999999 82.0 -41.10499999999999 L55.25 7.27000000000001 H50.625 Z"/></g><g id="Thin-M" transform="matrix(1 0 0 1 802.565 1126)"><path d="M51.125 4.77000000000001  55.625 -26.35499999999999 H41.875 Q40.125 -26.35499999999999 39.815 -27.294999999999987 Q39.5 -28.22999999999999 40.375 -29.72999999999999 L64.375 -75.22999999999999 H68.875 L64.375 -44.10499999999999 H78.125 Q79.625 -44.10499999999999 80.06500000000001 -43.16999999999999 Q80.5 -42.22999999999999 79.625 -40.72999999999999 L55.625 4.77000000000001 H51.125 Z"/></g><g id="Ultralight-M" transform="matrix(1 0 0 1 506.415 1126)"><path d="M51.5 3.2700000000000102  55.75 -26.72999999999999 H43.25 Q41.5 -26.72999999999999 41.25 -27.60499999999999 Q41.0 -28.47999999999999 41.75 -29.97999999999999 L64.25 -73.72999999999999 H68.5 L64.25 -43.72999999999999 H76.75 Q78.25 -43.72999999999999 78.625 -42.85499999999999 Q79.0 -41.97999999999999 78.25 -40.47999999999999 L55.75 3.2700000000000102 H51.5 Z"/></g><g id="Bold-S" transform="matrix(1 0 0 1 2294.23 696)"><path d="M39.547836 1.2596719999999948  44.580078 -27.338421999999994 H29.5875 Q28.011077999999998 -27.338421999999994 27.613422 -28.17633999999999 Q27.2205 -29.018991999999997 27.911664 -30.297171999999996 L50.099922 -71.71967199999999 H55.132164 L52.466922000000004 -43.12157799999999 H65.0925 Q66.569508 -43.12157799999999 67.014504 -42.330999999999996 Q67.4595 -41.54042199999999 66.668922 -40.16282799999999 L44.580078 1.2596719999999948 H39.547836 Z"/></g><g id="Semibold-S" transform="matrix(1 0 0 1 1998.1 696)"><path d="M39.846078 -0.21733599999998887  44.774172 -27.636663999999996 H30.378078 Q28.896336 -27.636663999999996 28.45134 -28.474581999999998 Q28.011077999999998 -29.312499999999993 28.697508000000003 -30.495999999999995 L49.905828 -70.24266399999999 H54.833922 L52.272828 -42.82333599999999 H64.301922 Q65.68425 -42.82333599999999 66.176586 -42.03749199999999 Q66.668922 -41.246914 65.883078 -39.96399999999999 L44.774172 -0.21733599999998887 H39.846078 Z"/></g><g id="Medium-S" transform="matrix(1 0 0 1 1701.85 696)"><path d="M40.040172 -1.301421999999988  44.873585999999996 -27.930171999999992 H30.969828 Q29.488086 -27.930171999999992 29.04309 -28.720749999999995 Q28.602828 -29.511327999999992 29.293992 -30.694827999999994 L49.806414000000004 -69.15857799999999 H54.639828 L52.173414 -42.529827999999995 H63.710172 Q65.0925 -42.529827999999995 65.584836 -41.78658999999999 Q66.077172 -41.04808599999999 65.291328 -39.76517199999999 L44.873585999999996 -1.301421999999988 H40.040172 Z"/></g><g id="Regular-S" transform="matrix(1 0 0 1 1405.73 696)"><path d="M40.239 -2.0919999999999987  44.973 -28.12899999999999 H31.36275 Q29.980422 -28.12899999999999 29.54016 -28.867503999999997 Q29.095164 -29.60600799999999 29.686913999999998 -30.78950799999999 L49.707 -68.368 H54.441 L52.074 -42.330999999999996 H63.31725 Q64.600164 -42.330999999999996 65.0925 -41.63983599999999 Q65.584836 -40.948671999999995 64.893672 -39.670491999999996 L44.973 -2.0919999999999987 H40.239 Z"/></g><g id="Light-S" transform="matrix(1 0 0 1 1109.75 696)"><path d="M40.731336 -4.0660780000000045  45.171828 -28.621335999999992 H33.138 Q31.755672 -28.621335999999992 31.36275 -29.312499999999993 Q30.969828 -30.003664 31.462163999999998 -31.087749999999993 L49.508172 -66.39392199999999 H53.948664 L51.875172 -41.838663999999994 H61.542 Q62.7255 -41.838663999999994 63.217836 -41.19483999999999 Q63.710172 -40.555749999999996 63.118422 -39.372249999999994 L45.171828 -4.0660780000000045 H40.731336 Z"/></g><g id="Thin-S" transform="matrix(1 0 0 1 814.015 696)"><path d="M41.128992000000004 -6.035421999999983  45.46533599999999 -29.018991999999997 H34.813836 Q33.530922000000004 -29.018991999999997 33.18534 -29.70542199999999 Q32.844491999999995 -30.396585999999992 33.336828 -31.385991999999995 L49.214664000000006 -64.424578 H53.551007999999996 L51.581664 -41.44100799999999 H59.866164000000005 Q60.850835999999994 -41.44100799999999 61.343172 -40.80191799999999 Q61.835508 -40.16282799999999 61.248492000000006 -39.07400799999999 L45.46533599999999 -6.035421999999983 H41.128992000000004 Z"/></g><g id="Ultralight-S" transform="matrix(1 0 0 1 517.792 696)"><path d="M41.4225 -7.218921999999992  45.56475 -29.312499999999993 H35.897922 Q34.615008 -29.312499999999993 34.3215 -29.95158999999999 Q34.027992 -30.595413999999998 34.420913999999996 -31.580085999999987 L49.11525 -63.24107799999999 H53.2575 L51.48225 -41.147499999999994 H58.782078 Q59.76675 -41.147499999999994 60.211746 -40.555749999999996 Q60.652007999999995 -39.96399999999999 60.159672 -38.879914 L45.56475 -7.218921999999992 H41.4225 Z"/></g></g></svg>